<?xml version="1.0" standalone="no"?>
<!DOCTYPE svg PUBLIC "-//W3C//DTD SVG 20010904//EN"
 "http://www.w3.org/TR/2001/REC-SVG-20010904/DTD/svg10.dtd">
<svg version="1.0" xmlns="http://www.w3.org/2000/svg"
 width="234.000000pt" height="234.000000pt" viewBox="0 0 234.000000 234.000000"
 preserveAspectRatio="xMidYMid meet">
<metadata>
Created by potrace 1.14, written by Peter Selinger 2001-2017
</metadata>
<g transform="translate(0.000000,234.000000) scale(0.100000,-0.100000)"
fill="#000000" stroke="none">
<path d="M28 1636 c-23 -11 -23 -14 -23 -201 l0 -190 135 -1 c74 0 140 1 147
4 14 5 14 70 0 79 -5 3 -46 6 -91 7 l-81 1 -5 155 -5 154 -27 1 c-16 1 -38 -3
-50 -9z"/>
<path d="M362 1625 c-14 -18 -17 -47 -16 -186 1 -90 2 -171 3 -180 1 -13 21
-15 149 -15 l147 1 0 40 0 40 -97 3 -98 3 0 27 c0 16 -4 32 -10 38 -6 6 20 10
78 9 l87 0 0 40 0 40 -72 0 c-40 0 -74 3 -76 5 -2 3 -7 19 -10 37 l-6 32 102
3 102 3 -2 34 c-1 18 -4 36 -8 39 -3 3 -62 6 -131 7 -117 1 -127 -1 -142 -20z"/>
<path d="M831 1638 c-11 -4 -28 -37 -45 -85 -15 -43 -39 -107 -53 -143 -42
-110 -54 -150 -48 -161 8 -13 88 -9 97 5 4 6 8 21 8 34 0 17 6 22 28 23 15 0
34 2 42 4 92 19 86 21 105 -29 l18 -46 48 2 c33 0 49 5 49 13 0 7 -20 66 -44
132 -24 65 -54 146 -66 181 -13 34 -27 65 -33 69 -14 8 -85 9 -106 1z m73
-164 c10 -31 15 -58 13 -61 -7 -6 -81 -23 -85 -19 -2 2 4 20 12 40 8 20 15 39
15 41 1 19 14 55 20 55 4 0 15 -25 25 -56z"/>
<path d="M1183 1642 c-53 -5 -56 -16 -55 -202 0 -94 1 -177 1 -185 1 -24 226
-15 272 11 52 30 72 81 71 179 -1 149 -50 196 -207 199 -27 1 -64 0 -82 -2z
m142 -92 c35 -13 44 -53 36 -169 -2 -33 -29 -51 -77 -51 -24 0 -45 3 -45 8 -1
4 -2 50 -3 102 -1 52 -5 100 -9 106 -8 14 64 17 98 4z"/>
<path d="M1604 1631 c-52 -24 -74 -55 -74 -104 0 -59 45 -99 138 -122 51 -12
76 -23 83 -37 10 -19 2 -34 -21 -39 -48 -9 -79 -1 -107 26 -6 7 -31 12 -55 11
-35 -1 -44 -5 -46 -22 -8 -53 75 -105 168 -105 112 -1 183 56 175 139 -5 54
-41 82 -137 106 -71 18 -83 25 -86 44 -6 39 76 48 99 10 4 -6 29 -11 56 -12
41 -1 48 2 51 20 4 30 -46 80 -94 93 -56 16 -103 13 -150 -8z"/>
<path d="M45 1142 c-41 -8 -45 -27 -45 -219 l0 -184 53 3 52 3 2 65 c0 36 -3
70 -7 75 -5 6 10 11 43 13 29 2 63 4 76 5 23 2 24 0 25 -78 l1 -80 50 0 50 0
3 198 2 197 -39 0 c-53 0 -69 -18 -69 -81 -1 -29 -5 -56 -9 -60 -12 -12 -99
-27 -112 -20 -6 4 -12 40 -13 80 -3 79 -14 93 -63 83z"/>
<path d="M450 1132 c-20 -16 -22 -27 -22 -109 1 -103 13 -138 62 -173 47 -34
142 -37 200 -8 63 32 79 66 84 174 4 118 -2 136 -50 130 -20 -3 -41 -9 -47
-15 -5 -5 -11 -45 -12 -88 -1 -43 -5 -88 -9 -100 -14 -43 -98 -43 -112 0 -4
12 -8 62 -9 112 l0 90 -32 2 c-18 2 -40 -5 -53 -15z"/>
<path d="M878 1136 c-23 -12 -23 -13 -23 -201 l0 -190 43 -2 c28 -1 45 3 48
11 3 7 6 54 7 104 1 50 5 88 8 84 16 -18 109 -166 109 -173 0 -25 93 -38 108
-14 3 5 6 90 7 189 0 132 -3 183 -12 192 -14 14 -61 9 -78 -7 -5 -5 -12 -51
-15 -102 l-5 -92 -66 101 c-69 105 -90 121 -131 100z"/>
<path d="M1266 1135 c-21 -10 -36 -50 -28 -72 3 -8 24 -13 58 -13 l53 0 3
-152 3 -153 50 0 50 0 0 153 0 152 57 0 c61 0 64 3 67 63 0 15 -5 27 -12 28
-71 6 -285 2 -301 -6z"/>
<path d="M1656 1135 c-20 -10 -21 -19 -21 -200 l0 -190 148 -3 147 -2 0 44 0
44 -91 1 c-50 0 -94 3 -99 6 -4 3 -10 18 -12 35 -5 33 -10 31 92 34 l65 1 3
38 c2 25 -1 37 -10 38 -7 1 -38 3 -68 4 -30 1 -60 3 -66 4 -7 0 -14 17 -16 35
l-4 35 101 -2 100 -1 0 43 0 44 -124 1 c-69 1 -134 -4 -145 -9z"/>
<path d="M2029 1138 c-11 -4 -22 -15 -26 -24 -12 -31 -9 -355 4 -365 6 -6 31
-9 55 -7 l43 3 1 50 c0 28 -4 58 -9 68 -7 16 -4 18 28 15 34 -3 39 -8 73 -70
l36 -68 47 0 c26 0 50 4 53 9 3 5 -10 37 -29 71 -35 62 -43 90 -26 90 5 0 19
16 31 36 43 69 11 159 -65 184 -38 13 -188 18 -216 8z m175 -94 c36 -35 10
-76 -50 -79 -41 -2 -50 8 -56 58 l-4 37 47 0 c30 0 53 -6 63 -16z"/>
<path d="M459 773 c0 -5 -2 -18 -3 -30 -5 -42 5 -46 142 -46 71 0 134 3 139 6
8 5 10 27 4 70 -1 4 -64 7 -141 7 -77 0 -140 -3 -141 -7z"/>
</g>
</svg>
