<svg version="1.0" xmlns="http://www.w3.org/2000/svg" width="312" height="312" viewBox="0 0 234 234"><path d="M2.8 70.4C.5 71.5.5 71.8.5 90.5v19l13.5.1c7.4 0 14-.1 14.7-.4 1.4-.5 1.4-7 0-7.9-.5-.3-4.6-.6-9.1-.7l-8.1-.1L11 85l-.5-15.4-2.7-.1c-1.6-.1-3.8.3-5 .9zm33.4 1.1c-1.4 1.8-1.7 4.7-1.6 18.6.1 9 .2 17.1.3 18 .1 1.3 2.1 1.5 14.9 1.5l14.7-.1v-8l-9.7-.3-9.8-.3v-2.7c0-1.6-.4-3.2-1-3.8-.6-.6 2-1 7.8-.9h8.7v-8h-7.2c-4 0-7.4-.3-7.6-.5-.2-.3-.7-1.9-1-3.7l-.6-3.2 10.2-.3 10.2-.3-.2-3.4c-.1-1.8-.4-3.6-.8-3.9-.3-.3-6.2-.6-13.1-.7-11.7-.1-12.7.1-14.2 2zm46.9-1.3c-1.1.4-2.8 3.7-4.5 8.5-1.5 4.3-3.9 10.7-5.3 14.3-4.2 11-5.4 15-4.8 16.1.8 1.3 8.8.9 9.7-.5.4-.6.8-2.1.8-3.4 0-1.7.6-2.2 2.8-2.3 1.5 0 3.4-.2 4.2-.4 9.2-1.9 8.6-2.1 10.5 2.9l1.8 4.6 4.8-.2c3.3 0 4.9-.5 4.9-1.3 0-.7-2-6.6-4.4-13.2-2.4-6.5-5.4-14.6-6.6-18.1-1.3-3.4-2.7-6.5-3.3-6.9-1.4-.8-8.5-.9-10.6-.1zm7.3 16.4c1 3.1 1.5 5.8 1.3 6.1-.7.6-8.1 2.3-8.5 1.9-.2-.2.4-2 1.2-4 .8-2 1.5-3.9 1.5-4.1.1-1.9 1.4-5.5 2-5.5.4 0 1.5 2.5 2.5 5.6zm27.9-16.8c-5.3.5-5.6 1.6-5.5 20.2 0 9.4.1 17.7.1 18.5.1 2.4 22.6 1.5 27.2-1.1 5.2-3 7.2-8.1 7.1-17.9-.1-14.9-5-19.6-20.7-19.9-2.7-.1-6.4 0-8.2.2zm14.2 9.2c3.5 1.3 4.4 5.3 3.6 16.9-.2 3.3-2.9 5.1-7.7 5.1-2.4 0-4.5-.3-4.5-.8-.1-.4-.2-5-.3-10.2-.1-5.2-.5-10-.9-10.6-.8-1.4 6.4-1.7 9.8-.4zm27.9-8.1c-5.2 2.4-7.4 5.5-7.4 10.4 0 5.9 4.5 9.9 13.8 12.2 5.1 1.2 7.6 2.3 8.3 3.7 1 1.9.2 3.4-2.1 3.9-4.8.9-7.9.1-10.7-2.6-.6-.7-3.1-1.2-5.5-1.1-3.5.1-4.4.5-4.6 2.2-.8 5.3 7.5 10.5 16.8 10.5 11.2.1 18.3-5.6 17.5-13.9-.5-5.4-4.1-8.2-13.7-10.6-7.1-1.8-8.3-2.5-8.6-4.4-.6-3.9 7.6-4.8 9.9-1 .4.6 2.9 1.1 5.6 1.2 4.1.1 4.8-.2 5.1-2 .4-3-4.6-8-9.4-9.3-5.6-1.6-10.3-1.3-15 .8zM4.5 119.8c-4.1.8-4.5 2.7-4.5 21.9v18.4l5.3-.3 5.2-.3.2-6.5c0-3.6-.3-7-.7-7.5-.5-.6 1-1.1 4.3-1.3 2.9-.2 6.3-.4 7.6-.5 2.3-.2 2.4 0 2.5 7.8l.1 8h10l.3-19.8.2-19.7h-3.9c-5.3 0-6.9 1.8-6.9 8.1-.1 2.9-.5 5.6-.9 6-1.2 1.2-9.9 2.7-11.2 2-.6-.4-1.2-4-1.3-8-.3-7.9-1.4-9.3-6.3-8.3zm40.5 1c-2 1.6-2.2 2.7-2.2 10.9.1 10.3 1.3 13.8 6.2 17.3 4.7 3.4 14.2 3.7 20 .8 6.3-3.2 7.9-6.6 8.4-17.4.4-11.8-.2-13.6-5-13-2 .3-4.1.9-4.7 1.5-.5.5-1.1 4.5-1.2 8.8-.1 4.3-.5 8.8-.9 10-1.4 4.3-9.8 4.3-11.2 0-.4-1.2-.8-6.2-.9-11.2v-9l-3.2-.2c-1.8-.2-4 .5-5.3 1.5zm42.8-.4c-2.3 1.2-2.3 1.3-2.3 20.1v19l4.3.2c2.8.1 4.5-.3 4.8-1.1.3-.7.6-5.4.7-10.4.1-5 .5-8.8.8-8.4 1.6 1.8 10.9 16.6 10.9 17.3 0 2.5 9.3 3.8 10.8 1.4.3-.5.6-9 .7-18.9 0-13.2-.3-18.3-1.2-19.2-1.4-1.4-6.1-.9-7.8.7-.5.5-1.2 5.1-1.5 10.2l-.5 9.2-6.6-10.1c-6.9-10.5-9-12.1-13.1-10zm38.8.1c-2.1 1-3.6 5-2.8 7.2.3.8 2.4 1.3 5.8 1.3h5.3l.3 15.2.3 15.3h10V129h5.7c6.1 0 6.4-.3 6.7-6.3 0-1.5-.5-2.7-1.2-2.8-7.1-.6-28.5-.2-30.1.6zm39 0c-2 1-2.1 1.9-2.1 20v19l14.8.3 14.7.2v-8.8l-9.1-.1c-5 0-9.4-.3-9.9-.6-.4-.3-1-1.8-1.2-3.5-.5-3.3-1-3.1 9.2-3.4l6.5-.1.3-3.8c.2-2.5-.1-3.7-1-3.8-.7-.1-3.8-.3-6.8-.4-3-.1-6-.3-6.6-.4-.7 0-1.4-1.7-1.6-3.5l-.4-3.5 10.1.2 10 .1v-8.7l-12.4-.1c-6.9-.1-13.4.4-14.5.9zm37.3-.3c-1.1.4-2.2 1.5-2.6 2.4-1.2 3.1-.9 35.5.4 36.5.6.6 3.1.9 5.5.7l4.3-.3.1-5c0-2.8-.4-5.8-.9-6.8-.7-1.6-.4-1.8 2.8-1.5 3.4.3 3.9.8 7.3 7l3.6 6.8h4.7c2.6 0 5-.4 5.3-.9.3-.5-1-3.7-2.9-7.1-3.5-6.2-4.3-9-2.6-9 .5 0 1.9-1.6 3.1-3.6 4.3-6.9 1.1-15.9-6.5-18.4-3.8-1.3-18.8-1.8-21.6-.8zm17.5 9.4c3.6 3.5 1 7.6-5 7.9-4.1.2-5-.8-5.6-5.8l-.4-3.7h4.7c3 0 5.3.6 6.3 1.6zM45.9 156.7c0 .5-.2 1.8-.3 3-.5 4.2.5 4.6 14.2 4.6 7.1 0 13.4-.3 13.9-.6.8-.5 1-2.7.4-7-.1-.4-6.4-.7-14.1-.7-7.7 0-14 .3-14.1.7z"/></svg>